<svg xmlns="http://www.w3.org/2000/svg" id="prefix__svg8" version="1.1" viewBox="0 0 317.5 158.75">
  <style>
    @keyframes animate{to{stroke-dashoffset:0}}
  </style>
  <defs id="prefix__defs2">
    <clipPath id="prefix__clipPath823" clipPathUnits="userSpaceOnUse">
      <text id="prefix__text829" y="204.785" x="43.723" style="line-height:1.25" xml:space="preserve" font-style="normal" font-weight="400" font-size="20.398" font-family="sans-serif" letter-spacing="0" word-spacing="0" fill="#000" fill-opacity="1" stroke="none" stroke-width=".51">
        <tspan style="-inkscape-font-specification:'Bradley Hand ITC, Normal';font-variant-ligatures:normal;font-variant-caps:normal;font-variant-numeric:normal;font-feature-settings:normal;text-align:start" y="204.785" x="43.723" id="prefix__tspan825" font-style="normal" font-variant="normal" font-weight="400" font-stretch="normal" font-size="52.979" font-family="Bradley Hand ITC" writing-mode="lr-tb" text-anchor="start" fill="#000" fill-opacity="1" stroke-width=".51">Delicious</tspan><tspan id="prefix__tspan827" style="-inkscape-font-specification:'Bradley Hand ITC, Normal';font-variant-ligatures:normal;font-variant-caps:normal;font-variant-numeric:normal;font-feature-settings:normal;text-align:start" y="251.381" x="43.723" font-style="normal" font-variant="normal" font-weight="400" font-stretch="normal" font-size="29.801" font-family="Bradley Hand ITC" writing-mode="lr-tb" text-anchor="start" fill="#000" fill-opacity="1" stroke-width=".51">Detroit Style Pizza</tspan>
      </text>
    </clipPath>
  </defs>
  <g transform="translate(0 -138.25)" id="prefix__layer1">
    <path clip-path="url(#prefix__clipPath823)" id="prefix__start" d="M38.63 178.773l6.148.802 3.207-.661 7.008 1.13 13.037 6.213 4.544 5.345 1.336 2.406-3.474 5.078-5.88 1.336-7.484.802-6.053.58-6.509 1.023 1.337-17.372 4.86-5.831.485 3.693v11.492l-.267 3.475.534 5.613-3.207 6.147 8.018-4.811 11.226-1.871 9.889-9.354 3.474-2.406 3.207.535 4.212-1.636 3.067-3.459.74-3.19-1.893-1.973-1.85-.433-2.94 2.138-2.405 4.544-.596 2.027-1.275 5.723-1.069 5.079 1.871 3.741 4.544 1.07 4.276-1.871 1.871-1.871 2.673-2.94 3.474-7.751 3.207-6.682 1.604-7.216s.535-3.207.535-4.544c0-1.336-2.673-3.474-2.673-3.474l-.802 4.276.535 5.613-.535 9.087v4.81l-.534 5.88 1.069 4.544 1.336 1.07 3.742-2.139 2.94-2.138 1.603-1.604 1.337-4.276 2.94-7.483 2.405-2.139.267 6.148-1.336 5.345v2.673l.535 4.276 2.138.802 3.741-2.673 2.406-1.603 2.138-1.871.267-3.208-1.87-20.58-2.139-9.087-2.313 5.33-2.168 2.562-3.224 3.129-2.718 2.343h15.234l5.346-2.405 9.621 5.078 2.406 6.147-2.673 2.405-1.226-4.735-1.981-.61-1.394-1.389-1.562 1.122-1.588 2.405-2.405 4.544v2.94l-1.337 2.405.535 4.544 2.138 2.672 5.613.268 3.82-2.044 2.327-1.43.802-1.872 1.069-2.138 4.009-5.078.802-3.207 2.721-3.931-.11 2.94-.473 7.138-.802 4.81v3.742l2.138.802 2.406-1.336 2.672-1.604 2.94-1.87.535-.802 1.069-6.415s.802-16.57.267-17.64c-.534-1.069-5.88-8.018-5.88-8.018l-1.069 4.811-2.405 2.406-2.94 3.207-1.337 1.069-2.672 3.207 10.958 1.604 9.354 2.138 3.475-.535 4.543-.267 3.208 1.07-5.613.534-1.65 1.62-1.684 2.121-1.21 4.277-.802 2.138-1.336 4.009.535 4.276 2.405 2.138 5.613-1.336 4.009-2.94 2.138-2.94.802-3.474v-2.673l-.535-4.01-2.94-2.939-1.336-1.07h6.949l5.88-.266.802 4.009-1.07 6.147v3.742l.535 4.276 2.138 1.069 3.459-2.343 3.49-3.002 2.373-2.517 1.62-1.965 2.154-1.398 1.337-3.475 1.558-3.569-.756 2.233-1.871 6.682v3.474l-.268 2.94 1.337 2.94 3.742 1.604 1.603-1.07 1.337-1.336 1.069-12.294 4.009-2.94 2.94-1.336 3.474-1.871 6.809-.092-1.512-1.229-3.96-.283-3.742 1.604-2.138 3.474-.802 2.94v0l1.555 2.956 4.057 1.855 4.01 1.274 4.527 1.966.818 2.105-1.337 1.871-2.478 1.342-3.48.672-6.87-.41-2.94-.802-.268-.535L34.621 233.03l10.424 4.81h3.742l3.207.535 4.009 2.138 4.01 3.208.534 2.138-1.604 2.405-4.009.668-4.143.802-2.405.268-2.272.267s-.802.267-1.47 0c-.668-.267-1.87-3.742-1.87-4.544 0-.802 1.736-4.677 2.405-5.479.668-.802 2.405-1.202 2.405-1.202l.267-1.47v9.488l.134 3.073.134 2.272-5.747 4.544 12.83-.802 8.552-13.096h1.203l1.202 1.47 3.208-.936 1.47-2.405-.268-2.005-1.069-.4h-1.203l-1.47 1.336-.668 1.737-1.069 2.138-.534 2.138-.401 2.406.4 2.138 1.872 1.47 2.94-.134 1.603-1.604.802-.801 1.604-5.747.668-2.539 1.47-.267.534-2.673-.267-2.806v6.548l-.4 2.94.4 3.34.935 1.605 1.871.935h2.54l1.068-.4 1.07-10.29-4.544.4h-2.54l-2.004-.267h-.801l12.294-.535.134 1.337.4 2.539.401 3.073v4.009l.535-4.41 2.138-2.539 1.737-1.737 1.47-.935 1.604-.802.802-.401 5.612-.401-1.069 1.07-1.47 1.202-.668 2.272-.267 2.405-1.07 2.405.669 2.406 1.604.668 2.672-.668 2.272-1.604 1.336-2.004.535-2.673-.267-2.539-1.337-1.87-2.004-1.07-.936-.134 3.742-.534 5.078.668.401 2.673-.267 3.073-.535 3.074.134 2.405h1.737l2.005-1.202 1.203-1.07 1.069-.935s-1.871-6.414-2.005-6.949c-.133-.534.134-9.488.134-9.488l-1.07 1.07-1.336 2.004-1.603 1.336-1.203.668 10.29-.802.267 2.005-.133 4.009v6.013l.801 2.406 1.604 1.069 2.405-.267 2.005-.268s4.677-2.672 4.41-3.741c-.267-1.07-4.01-6.415-4.01-6.415h-2.271l-3.207.535h-2.138l-2.005-.134 29.8-3.608 2.94-.134 2.272.669-5.88-.669-3.34.535-2.272 1.069-1.203 2.004 1.07 1.203 2.806 1.337 4.944 1.336 3.34 1.069 2.139 1.07.267 1.603-1.737 1.737-2.806.534-4.01.669-5.478-.401-3.475-.535-1.336-1.069.267-1.203 1.47-.668 8.553-1.87 13.363-10.29.535 2.138-.268 4.677v2.272l-.267 3.073.668 2.54 1.604 1.068 1.737.535 1.337-.401 1.737-.4.534-10.157-3.608.534h-2.672l-3.609-.133 11.092 1.336 2.54-2.806v6.548l-.402 3.073.535 1.871 1.069.802 2.806-.935 1.203-1.738 2.94-2.138 1.737-2.138 1.871-2.806-.134-2.138.134 4.543.134 4.945v3.742l-.268 3.073-.133 2.94-2.272 2.406-2.005.935-3.741.267-3.609-2.405-1.069-1.47-.267-1.47.802-1.47 1.604-.936 1.47-.4 7.082-5.48 5.078-3.741 4.277-11.76v3.207l-.268 4.544-.4 4.276-.134 2.673.133 2.539 1.203.4 1.871-1.202 2.138-1.203 1.47-3.608 2.005-1.87 1.47 1.47 2.539-.669 1.737-1.87.535-3.208-2.005-.936-2.138 1.871-.401 1.871-1.336 2.807-.268 2.138-.534 2.138.4 2.138 1.604 1.203 3.608-.535 1.47-1.47.936-.935 10.022-12.428 3.609-.668 4.543.935 3.876 1.336 2.004 1.871-.534 1.871-1.871 1.336-3.208 1.07-3.741.935-2.406.935h-7.484l8.687-8.151-.134 3.608-.801 3.742.133 4.009.134 1.87 2.806 1.07 12.16-12.696-.133 4.811-.267 3.341v2.272l2.005.4 1.87-.935 1.337-1.202.802-.936-2.54-16.17-1.069.936-.935 1.737-1.604 1.203-.935 1.069 7.75 3.073 3.342.268 4.276.133 3.742-.267 1.069-.134-11.493 12.295 2.272-.535 4.544-.267 3.474.4 2.272-.534.668-1.47 1.737-10.156 2.807.535 5.479.267 3.474-.668.802.133-10.958 11.894 2.673-.535h5.211l3.208.268 1.47-1.604 5.612-9.889 2.807-1.604 2.271.401 2.406.936-4.41-1.604-2.138.936-1.07 2.405-1.068 4.01-.268 2.538-.802 2.272 1.337.935 2.806-1.737 2.54-3.34 2.405-2.807 1.069-2.806-.535-1.07-.267 5.079-.535 3.34.268 3.208.801.534 1.604 2.54" style="animation:animate 7s ease-in infinite; animation-delay: .5s" fill="none" stroke="#fdf7f2" stroke-width="5.5" stroke-linecap="round" stroke-linejoin="round" stroke-miterlimit="4" stroke-opacity="1" paint-order="normal" stroke-dasharray="10000" stroke-dashoffset="10000"/>
  </g>
</svg>
