<?xml version="1.0" encoding="UTF-8" standalone="no"?>
<svg xmlns:dc="http://purl.org/dc/elements/1.1/" xmlns:cc="http://creativecommons.org/ns#" xmlns:rdf="http://www.w3.org/1999/02/22-rdf-syntax-ns#" xmlns:svg="http://www.w3.org/2000/svg" xmlns="http://www.w3.org/2000/svg" version="1.1" viewBox="10 0 100 16">
   <style>
      @keyframes draw { to { stroke-dashoffset: 0; } } @keyframes fade { 95% { opacity: 1; } 100% { opacity: 0; } } 
      .handwriting { 
         animation: draw, fade; 
         animation-duration: 15s;
         /* animation-timing-function: cubic-bezier(1.05, 1.5, 5, .5); */
         animation-timing-function: linear;
         animation-delay: .5s;
         animation-iteration-count: infinite;
         fill: none; 
         stroke: #fdf7f2; 
         stroke-width: .8; 
         stroke-linecap: round; 
         stroke-linejoin: round; 
         stroke-miterlimit: 4; 
         stroke-opacity: 1; 
         stroke-dasharray: 2520; 
         stroke-dashoffset: 2520; 
         clip-path: url(#pathToClip); }
   </style>
   <defs>
      <clipPath id="pathToClip" >
         <text>
            <tspan style="font-size:14.11111069px;font-family:'Freestyle Script';text-anchor:end;stroke-width:0.26458332" y="292.32278" x="97.286118">Detroit Style Pizza</tspan></text>
      </clipPath>
   </defs>
   <g transform="translate(0,-281.125)">
      <path class="handwriting" d="m 25.796875,285.77883 c 0,0 1.529,-1.33186 2.409599,-1.81901 0.309684,-0.17132 0.604388,-0.28325 0.992186,-0.37797 0.322739,-0.0788 0.992189,-0.0945 0.992189,-0.0945 0,0 0.479896,0.12561 0.69122,0.24949 0.222391,0.13036 0.457596,0.28204 0.584448,0.50645 0.180922,0.32007 0.119453,0.93247 0.0945,1.29929 -0.03702,0.54413 -0.247103,1.05244 -0.448845,1.55915 -0.1876,0.47119 -0.411573,0.8816 -0.661459,1.32292 -0.338825,0.5984 -0.712779,1.0568 -1.155339,1.58313 -0.769822,0.77624 -1.660881,1.68525 -2.729032,2.11216 -0.392042,0.1567 -1.070832,0.37658 -1.26003,0.12872 -0.292915,-0.38376 0.07878,-1.17668 0.313406,-1.78605 0.268244,-0.69668 0.964394,-2.2657 1.498737,-3.37441 0.291911,-0.60568 0.712303,-1.33527 0.93186,-1.78892 0.443744,-0.91687 1.148348,-1.71743 1.148348,-1.71743 l 1.036179,7.07044 c 0,0 0.973032,-0.27089 1.436574,-0.46772 0.371428,-0.15771 0.756767,-0.31242 1.069078,-0.56795 0.312311,-0.25553 0.7684,-0.93544 0.7684,-0.93544 0,0 0.25182,-0.66221 0.03341,-0.83522 -0.163078,-0.12918 -0.416141,0.0723 -0.601355,0.16704 -0.380897,0.19485 -1.002261,0.80181 -1.002261,0.80181 0,0 -0.344236,0.44909 -0.467722,0.70158 -0.13925,0.28472 -0.269448,0.58664 -0.300678,0.90204 -0.02654,0.26804 -0.02911,0.53685 0.12385,0.73094 0.160892,0.20416 0.457529,0.29255 0.717098,0.30641 0.38179,0.0204 1.096757,-0.33577 1.096757,-0.33577 0,0 0.55419,-0.47015 0.801807,-0.73499 0.194796,-0.20835 0.422395,-0.40592 0.53454,-0.66817 0.658255,-1.53935 0.668174,-4.9779 0.668174,-4.9779 0,0 2.633957,-2.22469 3.614158,-0.9128 0.709937,0.95017 -0.268034,1.37299 -0.941462,2.34937 -0.331511,0.48065 -0.713665,0.929 -1.002263,1.43658 -0.253736,0.44626 -0.445673,0.9259 -0.634764,1.40316 -0.164745,0.41581 -0.351367,0.83003 -0.434314,1.26953 -0.04755,0.25193 -0.102354,0.52147 -0.03341,0.7684 0.04319,0.15469 0.118884,0.33945 0.267269,0.40091 0.157384,0.0652 0.346887,-0.0279 0.501128,-0.10023 0.336992,-0.15799 0.623038,-0.42192 0.868628,-0.70158 0.267177,-0.30425 0.634764,-1.03567 0.634764,-1.03567 l 0.367496,-0.86863 c 0,0 -3.508863,0.41607 -3.708366,-0.83521 -0.0445,-0.27913 0.77312,-0.32892 1.035384,-0.43432 1.656337,-0.66566 4.911367,-1.20271 4.911367,-1.20271 l 0.200451,0.90203 c 0,0 -0.774734,1.05712 -1.135894,1.60362 -0.187444,0.28363 -0.38333,0.56413 -0.53454,0.86863 -0.355963,0.71682 -0.845003,2.21476 -0.845003,2.21476 0,0 0.574415,-1.25714 0.99653,-1.78045 0.502283,-0.6227 1.752769,-1.50339 1.752769,-1.50339 l 0.968851,-0.73499 c 0,0 -0.675719,0.47716 -0.884142,0.85884 -0.109792,0.20106 -0.06395,0.34514 -0.131957,0.5639 -0.111222,0.35773 0.32672,0.25853 0.509237,0.25343 0.544098,-0.0152 0.843805,-0.55324 1.308671,-0.74073 0.373233,-0.15054 1.169302,-0.30068 1.169302,-0.30068 0,0 0.890208,-0.91419 1.34683,-0.84904 0.293079,0.0418 0.274955,0.43663 0.299982,0.73162 0.04763,0.56138 -0.604425,0.96432 -0.778881,1.50003 -0.06842,0.21009 -0.09953,0.65532 -0.09953,0.65532 0,0 -0.556344,0.71483 -0.959066,0.87031 -0.210819,0.0814 -0.49987,0.13911 -0.677959,-10e-6 -0.21753,-0.16993 -0.223475,-0.52841 -0.200453,-0.80348 0.04876,-0.58266 0.447718,-1.10502 0.701585,-1.60767 0.155065,-0.30703 0.433977,-0.58629 0.690117,-0.78391 1.093667,-0.8438 3.786646,-1.21656 3.786646,-1.21656 l -0.501131,1.20272 c 0,0 -0.372257,0.56636 -0.550056,0.85478 -0.213152,0.34578 -0.488601,0.69958 -0.619247,1.04951 -0.156823,0.42004 -0.159864,0.88981 -0.334086,1.30294 -0.153749,0.36458 -0.617569,1.01372 -0.617569,1.01372 0,0 1.573251,-4.1581 2.695335,-5.87014 0.403997,-0.61641 1.217534,-1.38863 1.217534,-1.38863 0,0 1.71724,-1.47492 2.28395,-1.00464 0.30432,0.25254 -0.200451,1.16931 -0.200451,1.16931 l -0.868627,1.10248 -0.835218,1.33635 -0.768398,1.57021 c 0,0 -0.323469,0.89991 -0.334089,1.36976 -0.0043,0.19013 -0.01151,0.50656 0.157258,0.65433 0.142598,0.12487 0.305159,0.14861 0.565575,0.0587 0.360068,-0.12429 0.914194,-0.71304 0.914194,-0.71304 l 0.701582,-1.16931 0.701583,-1.40316 -3.507912,0.13363 -0.0432,-0.69753 4.987679,-1.17335 6.080382,-5.04472 4.777444,0.56795 -0.902036,2.53906 -2.438834,2.63929 -1.670434,0.20045 -0.367496,-0.66817 c 0,0 1.092878,-0.28589 1.62892,-0.61115 0.528633,-0.32075 1.195377,-0.71237 1.503391,-1.28336 0.148884,-0.27601 0.309849,-0.60566 0.241966,-0.91182 -0.04938,-0.2227 -0.100256,-0.39372 -0.306411,-0.49135 -0.390618,-0.18498 -0.923009,-0.0533 -1.330614,0.0904 -0.329613,0.11624 -0.619205,0.32921 -0.902036,0.53454 -0.395901,0.28742 -0.773716,0.60655 -1.102487,0.96885 -0.230542,0.25405 -0.481359,0.51383 -0.601356,0.83522 -0.129074,0.3457 -0.157298,0.73792 -0.100226,1.10249 0.06174,0.39439 0.277533,0.7515 0.467722,1.10248 0.191805,0.35396 0.478321,0.62949 0.673906,1.00227 0.16058,0.30606 0.413063,0.98674 0.413063,0.98674 0,0 0.0085,0.52177 -0.161304,0.7856 -0.253323,0.39359 -0.836057,0.75492 -1.277638,0.91014 -0.410947,0.14445 -0.795565,0.20234 -1.184823,0.12385 -0.427072,-0.0861 -0.876786,-0.29532 -1.145678,-0.62903 -0.191344,-0.23747 -0.199916,-0.64586 -0.123851,-0.94118 0.100532,-0.39032 0.502797,-0.536 0.796077,-0.72115 0.226392,-0.14293 0.461721,-0.16187 0.673906,-0.28111 2.905019,-1.63255 8.084902,-5.87993 8.084902,-5.87993 0,0 -0.543008,1.35329 -0.915871,1.99068 -0.276675,0.47297 -0.644478,0.89874 -0.955016,1.35019 -0.362609,0.52715 -0.72053,1.06256 -1.00226,1.63702 -0.152089,0.31012 -0.313756,0.59946 -0.438367,0.9216 -0.139157,0.35975 -0.297798,0.74208 -0.353658,1.12374 -0.05143,0.35143 -0.105055,0.72766 0.114064,0.96718 0.140482,0.15356 0.408441,0.18959 0.611141,0.12789 0.266342,-0.0811 0.668176,-0.50113 0.668176,-0.50113 l 0.902033,-1.33635 -2.716873,-1.99306 4.628579,-1.28673 0.963817,1.50172 c 0,0 -0.977687,0.58808 -1.383597,1.17433 -0.272884,0.39413 -0.722627,0.92906 -0.923979,1.47237 -0.1027,0.27712 -0.241113,0.61893 -0.03746,0.78224 0.244273,0.19588 0.6517,-0.12612 0.906089,-0.2477 0.420041,-0.19994 0.713076,-0.60028 1.035669,-0.93545 0.614022,-0.63797 1.703843,-2.03793 1.703843,-2.03793 0,0 -0.657553,1.15842 -0.974584,1.77066 -0.589616,1.13866 -0.617569,1.30476 -1.092704,2.266 -0.101394,0.20513 -0.500179,1.2507 -0.63644,1.4906 -0.213579,0.37603 -0.535232,1.14699 -0.971226,1.58879 -0.249577,0.2529 -0.547907,0.53895 -0.902036,0.56795 -0.228814,0.0187 -0.507774,-0.076 -0.634765,-0.26727 -0.141679,-0.21338 -0.07386,-0.54086 -0.02362,-0.79202 0.05678,-0.28392 0.33006,-0.61424 0.499452,-0.84906 0.198576,-0.27528 0.849118,-0.77444 1.122753,-0.97528 1.063961,-0.78088 2.878182,-1.69336 2.878182,-1.69336 l 0.968854,-1.03567 0.367496,-0.56795 c 0,0 0.798447,-0.0394 1.218229,-0.25511 0.447938,-0.23014 0.978417,-0.74602 1.35424,-1.08123 0.500372,-0.4463 0.942636,-0.96067 1.336347,-1.5034 0.524719,-0.72332 1.096898,-1.43024 1.351865,-2.31498 0.09251,-0.32102 0.466114,-0.8514 0.141738,-0.93139 -0.498157,-0.12284 -0.967649,0.44298 -1.208447,0.70158 -0.285308,0.30061 -0.536413,0.62117 -0.752882,0.97459 -0.392136,0.64022 -0.780684,1.28796 -1.13184,1.95154 -0.261271,0.49372 -0.498658,0.99012 -0.739047,1.48955 -0.239842,0.4983 -0.51421,0.98309 -0.701583,1.50339 -0.09606,0.26673 -0.260089,0.48533 -0.214289,0.82306 0.02324,0.17139 -0.06762,0.5107 0.09617,0.56627 0.25067,0.0851 0.64821,-0.0858 0.85311,-0.25343 0.497289,-0.40673 1.069078,-1.60362 1.069078,-1.60362 l 0.06682,0.52 c 0.0954,0.74244 1.631467,0.0304 2.171566,-0.28614 0.344179,-0.20708 0.654949,-0.50967 0.835218,-0.86862 0.14842,-0.29553 0.396103,-0.72695 0.162989,-0.97865 -0.09953,-0.10746 -0.318362,-0.0721 -0.457937,-0.0277 -0.284743,0.0906 -0.470849,0.28909 -0.707313,0.47178 -0.281033,0.21713 -0.505553,0.50567 -0.701585,0.8018 -0.211695,0.31979 -0.501128,1.03567 -0.501128,1.03567 0,0 -0.127683,0.56197 0.05703,0.82712 0.15131,0.21719 0.281486,0.33794 0.546002,0.34792 0.397672,0.015 0.976189,-0.22891 1.324885,-0.39112 0.394306,-0.18343 0.679105,-0.40181 0.978636,-0.7171 0.421861,-0.44405 1.102487,-1.46998 1.102487,-1.46998 0,0 4.144045,-2.81533 6.314227,-4.11499 0.476736,-0.2855 0.928869,-0.64203 1.446358,-0.85716 0.488038,-0.20288 1.017583,-0.3584 1.535122,-0.39684 0.320779,-0.0238 0.633925,-0.0406 0.889874,0.11402 0.317624,0.19193 0.56905,0.55377 0.638819,0.91182 0.07984,0.40972 -0.06372,0.79056 -0.247699,1.16525 -0.231647,0.47177 -0.634609,0.9232 -1.029937,1.26953 -0.440113,0.38556 -0.913494,0.69703 -1.452092,0.92566 -0.451302,0.19158 -0.932886,0.29389 -1.422734,0.31452 -0.217955,0.009 -0.502744,-0.0474 -0.745761,-0.11165 -0.558334,-0.14752 -1.616472,-0.62331 -1.616472,-0.62331 l 0.902035,-5.98015 3.089116,0.80487 c 0,0 -1.102069,2.66895 -1.84321,4.32217 -0.415654,0.92718 -1.379541,2.82423 -1.379541,2.82423 l -1.570208,3.74177 4.242904,-0.50113 1.169304,-4.04245 2.071339,-1.80407 0.601356,0.46031 c 0,0 -0.785932,1.16679 -1.212498,1.92722 -0.183146,0.32649 -0.43787,0.74563 -0.591571,1.08697 -0.250146,0.55553 -0.428674,1.14415 -0.567948,1.73726 -0.105487,0.44923 -0.200452,1.36975 -0.200452,1.36975 0,0 1.465123,-5.56525 3.267337,-7.68776 0.276405,-0.32553 0.467317,-0.84965 1.08222,-0.68566 0.557246,0.14861 0.197409,0.95173 -0.0064,1.49123 -0.200369,0.53032 -1.412446,0.27658 -1.329226,1.06097 0.03715,0.35019 0.293556,0.47583 0.293556,0.47583 l 2.104748,-0.13363 c 0,0 -1.605911,1.29238 -2.271791,2.07133 -0.407415,0.4766 -1.03567,1.57021 -1.03567,1.57021 0,0 1.162878,-0.45004 1.773731,-0.46198 0.14713,-0.003 0.138232,0.29731 0.431243,0.0945 0.988107,-0.68397 1.26953,-3.37428 1.26953,-3.37428 0,0 0.917603,0.25117 1.481447,0.24365 0.362537,-0.005 1.258066,-0.17683 1.258066,-0.17683 l -0.668174,0.73499 c -0.574637,0.6321 -1.34043,1.30619 -1.85537,1.97922 l -0.658388,0.86052 c 0,0 0.872699,-0.28846 1.214873,-0.33814 0.396897,-0.0576 1.131842,0.0375 1.131842,0.0375 l 2.171564,-6.5147 3.107009,2.47225 c 0,0 0.09241,2.51382 -0.273002,2.67142 -0.382971,0.16518 -0.551563,-1.61374 -1.224657,-2.02521 -0.158461,-0.0969 -0.376106,-0.0862 -0.555788,-0.0392 -0.290643,0.076 -0.537853,0.2856 -0.752883,0.49539 -0.231191,0.22556 -0.412592,0.55924 -0.552431,0.79608 -0.207875,0.35208 -0.373056,0.58084 -0.483239,0.97458 -0.09008,0.32191 -0.133632,0.55732 -0.104281,0.83691 0.0228,0.21723 0.01543,0.52889 0.21429,0.61925 0.273454,0.12424 0.599762,-0.16884 0.835217,-0.33815 0.25332,-0.18215 0.558163,-0.65028 0.558163,-0.65028 l 1.220605,-2.18135 -0.953335,2.04771 c 0,0 0.0035,0.81168 0.104281,1.07146 0.100013,0.2579 0.463668,0.39852 0.463668,0.39852 l 1.904295,0.7684"/>
   </g>
</svg>
